# xmcd
#
# Track frame offsets:
#	150
#	19432
#	42347
#
# Disc length: 808 seconds
# Revision: 0
# Processed by: cddbd v1.5.2PL0 Copyright (c) Steve Scherf et al.
# Submitted via: dBpowerAMP V12.0
#
DISCID=21032603
DTITLE=Jon Secada - Mental Picture [Remixes]
DYEAR=1995
DGENRE=House
TTITLE0=Mental Picture [E-Smoove’s Pop 7”]
TTITLE1=Mental Picture [E-Smoove’s Soul 7”]
TTITLE2=Mental Picture [E-Smoove’s Club 7”]
EXTD=
EXTT0=
EXTT1=
EXTT2=
PLAYORDER=
